<?xml version="1.0" encoding="UTF-8"?>
<svg id="Layer_1" data-name="Layer 1" xmlns="http://www.w3.org/2000/svg" viewBox="0 0 338 217">
  <defs>
    <style>
      .cls-1 {
        fill: #d6243c;
      }

      .cls-2 {
        fill: #222;
      }

      .cls-3 {
        opacity: 0;
      }

      .cls-4 {
        fill: #333;
      }

      .cls-5 {
        fill: #2a2a2a;
      }

      .cls-6 {
        fill: #d4d4d4;
      }

      .cls-7 {
        fill: #3a3a3a;
      }

      .cls-8 {
        fill: #0e0e0e;
      }

      .cls-9 {
        fill: #666;
      }
    </style>
  </defs>
  <rect class="cls-8" width="338" height="217"/>
  <rect class="cls-2" x="28.06" y="47.26" width="135.46" height=".99"/>
  <path class="cls-4" d="M170.46,47.75c0,.41-.15,.76-.44,1.05s-.64,.44-1.05,.44-.76-.15-1.05-.44-.44-.64-.44-1.05,.15-.76,.44-1.05,.64-.44,1.05-.44,.76,.15,1.05,.44,.44,.64,.44,1.05Z"/>
  <rect class="cls-2" x="174.43" y="47.26" width="135.46" height=".99"/>
  <path class="cls-5" d="M230.6,144.64v-.42h1.69v.42h-1.69Zm-.63,.86l1.16-3.25h.61l1.18,3.25h-.54l-.63-1.81c-.05-.15-.1-.32-.16-.52-.06-.2-.13-.44-.2-.72h.1c-.08,.28-.14,.52-.2,.72s-.11,.37-.15,.51l-.61,1.81h-.54Zm-4.96-2.16c-.09,0-.17-.03-.23-.09-.06-.06-.09-.14-.09-.23s.03-.16,.09-.23c.06-.06,.14-.09,.23-.09s.17,.03,.23,.09c.06,.06,.09,.14,.09,.23s-.03,.17-.09,.23c-.06,.06-.14,.09-.23,.09Zm0,1.72c-.09,0-.17-.03-.23-.09-.06-.06-.09-.14-.09-.23s.03-.16,.09-.23c.06-.06,.14-.09,.23-.09s.17,.03,.23,.09c.06,.06,.09,.14,.09,.23s-.03,.17-.09,.23c-.06,.06-.14,.09-.23,.09Zm-3.6,.5c-.24,0-.45-.04-.63-.12s-.32-.19-.42-.33c-.1-.14-.16-.31-.17-.51h.5c.01,.12,.05,.22,.12,.29,.07,.08,.15,.13,.26,.17,.11,.04,.22,.06,.35,.06,.14,0,.26-.02,.37-.07s.19-.1,.25-.18c.06-.08,.09-.17,.09-.27,0-.09-.03-.17-.08-.23s-.13-.11-.22-.15c-.09-.04-.2-.08-.31-.11l-.38-.1c-.27-.07-.47-.18-.62-.32-.15-.14-.22-.32-.22-.54,0-.19,.05-.35,.15-.49,.1-.14,.24-.25,.41-.33,.17-.08,.37-.12,.59-.12s.42,.04,.59,.12,.3,.18,.4,.32c.1,.14,.15,.29,.15,.46h-.49c-.02-.15-.09-.26-.21-.35-.12-.08-.27-.12-.46-.12-.13,0-.24,.02-.34,.06s-.17,.1-.22,.17c-.05,.07-.08,.15-.08,.25,0,.1,.03,.18,.09,.25,.06,.06,.14,.11,.23,.15,.09,.04,.18,.07,.26,.09l.31,.08c.1,.03,.21,.06,.32,.11,.11,.04,.21,.1,.3,.17,.09,.07,.17,.16,.23,.26,.06,.1,.09,.23,.09,.38,0,.18-.05,.35-.14,.49-.09,.14-.23,.26-.41,.34-.18,.08-.4,.12-.65,.12Zm-4.37,0c-.24,0-.45-.04-.63-.12s-.32-.19-.42-.33c-.1-.14-.16-.31-.17-.51h.5c.01,.12,.05,.22,.12,.29,.07,.08,.15,.13,.26,.17,.11,.04,.22,.06,.35,.06,.14,0,.26-.02,.37-.07s.19-.1,.25-.18c.06-.08,.09-.17,.09-.27,0-.09-.03-.17-.08-.23s-.13-.11-.22-.15c-.09-.04-.2-.08-.31-.11l-.38-.1c-.27-.07-.47-.18-.62-.32-.15-.14-.22-.32-.22-.54,0-.19,.05-.35,.15-.49,.1-.14,.24-.25,.41-.33,.17-.08,.37-.12,.59-.12s.42,.04,.59,.12,.3,.18,.4,.32c.1,.14,.15,.29,.15,.46h-.49c-.02-.15-.09-.26-.21-.35-.12-.08-.27-.12-.46-.12-.13,0-.24,.02-.34,.06s-.17,.1-.22,.17c-.05,.07-.08,.15-.08,.25,0,.1,.03,.18,.09,.25,.06,.06,.14,.11,.23,.15,.09,.04,.18,.07,.26,.09l.31,.08c.1,.03,.21,.06,.32,.11,.11,.04,.21,.1,.3,.17,.09,.07,.17,.16,.23,.26,.06,.1,.09,.23,.09,.38,0,.18-.05,.35-.14,.49-.09,.14-.23,.26-.41,.34-.18,.08-.4,.12-.65,.12Zm-5.34-.91v-.42h1.69v.42h-1.69Zm-.63,.86l1.16-3.25h.61l1.18,3.25h-.54l-.63-1.81c-.05-.15-.1-.32-.16-.52-.06-.2-.13-.44-.2-.72h.1c-.08,.28-.14,.52-.2,.72s-.11,.37-.15,.51l-.61,1.81h-.54Zm-3.76,0v-3.25h.5v2.82h1.47v.43h-1.97Zm-3.41,.04c-.28,0-.53-.07-.75-.2-.22-.13-.39-.32-.52-.57-.13-.25-.19-.55-.19-.89s.06-.65,.19-.9,.3-.44,.52-.57,.47-.2,.75-.2c.17,0,.33,.02,.48,.07,.15,.05,.28,.12,.4,.21,.12,.09,.22,.21,.3,.35,.08,.14,.13,.29,.16,.46h-.5c-.02-.1-.06-.2-.11-.28s-.11-.15-.19-.2c-.07-.06-.16-.1-.25-.12-.09-.03-.19-.04-.29-.04-.19,0-.35,.05-.5,.14-.15,.09-.26,.23-.35,.41-.08,.18-.13,.4-.13,.66s.04,.48,.13,.67c.09,.18,.2,.32,.35,.41,.15,.09,.31,.14,.5,.14,.1,0,.2-.01,.29-.04s.17-.07,.25-.12,.14-.12,.19-.2c.05-.08,.09-.17,.11-.27h.5c-.02,.16-.07,.31-.15,.44-.08,.13-.17,.25-.29,.35s-.25,.17-.4,.23c-.15,.05-.32,.08-.5,.08Zm-9.23-1.26c-.09,0-.17-.03-.23-.09-.06-.06-.09-.14-.09-.23s.03-.16,.09-.23c.06-.06,.14-.09,.23-.09s.17,.03,.23,.09c.06,.06,.09,.14,.09,.23s-.03,.17-.09,.23c-.06,.06-.14,.09-.23,.09Zm-9.69,1.22v-3.25h.5v2.82h1.47v.43h-1.97Zm-2.54,0l-.79-1.47h.55l.8,1.47h-.57Zm-1.85,0v-3.25h1.16c.25,0,.46,.04,.63,.13,.17,.09,.29,.21,.38,.36,.08,.15,.13,.33,.13,.53s-.04,.38-.13,.53-.21,.27-.38,.35c-.17,.08-.38,.12-.63,.12h-.88v-.43h.83c.16,0,.29-.02,.39-.07,.1-.05,.17-.11,.22-.2,.05-.09,.07-.19,.07-.31s-.02-.23-.07-.32-.12-.16-.22-.21c-.1-.05-.23-.07-.39-.07h-.61v2.82h-.5Zm-4.57-2.82v-.43h2.52v.43h-1.01v2.82h-.5v-2.82h-1.01Zm-3.25,2.86c-.28,0-.53-.07-.75-.2-.22-.13-.39-.32-.52-.57-.13-.25-.19-.55-.19-.89s.06-.65,.19-.9,.3-.44,.52-.57,.47-.2,.75-.2c.17,0,.33,.02,.48,.07,.15,.05,.28,.12,.4,.21,.12,.09,.22,.21,.3,.35,.08,.14,.13,.29,.16,.46h-.5c-.02-.1-.06-.2-.11-.28s-.11-.15-.19-.2c-.07-.06-.16-.1-.25-.12-.09-.03-.19-.04-.29-.04-.19,0-.35,.05-.5,.14-.15,.09-.26,.23-.35,.41-.08,.18-.13,.4-.13,.66s.04,.48,.13,.67c.09,.18,.2,.32,.35,.41,.15,.09,.31,.14,.5,.14,.1,0,.2-.01,.29-.04s.17-.07,.25-.12,.14-.12,.19-.2c.05-.08,.09-.17,.11-.27h.5c-.02,.16-.07,.31-.15,.44-.08,.13-.17,.25-.29,.35s-.25,.17-.4,.23c-.15,.05-.32,.08-.5,.08Zm-6.55-2.2c-.09,0-.17-.03-.23-.09-.06-.06-.09-.14-.09-.23s.03-.16,.09-.23c.06-.06,.14-.09,.23-.09s.17,.03,.23,.09c.06,.06,.09,.14,.09,.23s-.03,.17-.09,.23c-.06,.06-.14,.09-.23,.09Zm0,1.72c-.09,0-.17-.03-.23-.09-.06-.06-.09-.14-.09-.23s.03-.16,.09-.23c.06-.06,.14-.09,.23-.09s.17,.03,.23,.09c.06,.06,.09,.14,.09,.23s-.03,.17-.09,.23c-.06,.06-.14,.09-.23,.09Zm-4.5,.44v-3.25h2.05v.43h-1.55v.97h1.44v.43h-1.44v1h1.56v.43h-2.06Zm-4.35,0v-3.25h1.16c.25,0,.46,.05,.63,.14,.17,.09,.29,.22,.38,.38,.08,.16,.13,.34,.13,.54s-.04,.38-.13,.54-.21,.29-.38,.38-.38,.14-.63,.14h-.8v-.42h.75c.16,0,.29-.03,.39-.08,.1-.06,.17-.13,.22-.23,.05-.1,.07-.21,.07-.33s-.02-.23-.07-.32c-.05-.1-.12-.17-.22-.22-.1-.05-.23-.08-.39-.08h-.61v2.82h-.5Zm-3.65,0v-1.29l-1.2-1.95h.58l.61,1.04c.07,.11,.13,.22,.18,.33,.05,.1,.11,.23,.16,.39h-.16c.05-.16,.11-.29,.16-.39,.05-.11,.11-.21,.17-.32l.61-1.04h.58l-1.19,1.95v1.29h-.5Zm-5.59-2.82v-.43h2.52v.43h-1.01v2.82h-.5v-2.82h-1.01Zm-7.72,1.6c-.09,0-.17-.03-.23-.09-.06-.06-.09-.14-.09-.23s.03-.16,.09-.23c.06-.06,.14-.09,.23-.09s.17,.03,.23,.09c.06,.06,.09,.14,.09,.23s-.03,.17-.09,.23c-.06,.06-.14,.09-.23,.09Zm-8.9,.85c.12,0,.23-.03,.33-.09,.1-.06,.18-.14,.23-.25,.06-.1,.09-.22,.09-.34s-.03-.24-.08-.34c-.06-.1-.13-.18-.23-.24s-.21-.09-.33-.09c-.09,0-.18,.02-.26,.05-.08,.04-.15,.09-.21,.15-.06,.06-.11,.13-.14,.22-.03,.08-.05,.17-.05,.26,0,.12,.03,.23,.08,.34,.06,.1,.13,.18,.23,.25s.21,.09,.33,.09Zm0,.42c-.14,0-.29-.03-.43-.08-.14-.05-.27-.14-.38-.26-.11-.12-.21-.28-.27-.48-.07-.2-.1-.45-.1-.75,0-.28,.03-.53,.09-.75s.14-.41,.25-.56c.11-.15,.24-.27,.39-.35s.32-.12,.51-.12,.36,.04,.51,.11c.15,.08,.27,.18,.37,.32s.15,.29,.18,.46h-.49c-.03-.13-.1-.24-.2-.33s-.22-.13-.38-.13-.29,.05-.41,.14-.2,.23-.26,.4c-.06,.17-.09,.38-.09,.63h.03c.06-.09,.12-.17,.2-.24,.08-.07,.17-.12,.28-.15,.1-.03,.21-.05,.32-.05,.19,0,.36,.05,.51,.14,.15,.09,.28,.22,.37,.38,.09,.16,.14,.34,.14,.55s-.05,.39-.14,.56c-.09,.17-.23,.3-.4,.4-.17,.1-.37,.15-.6,.15Zm-3.28-3.29v3.25h-.49v-2.8h-.02l-.77,.56v-.5l.71-.52h.58Zm-4.42,2.87c.15,0,.28-.05,.38-.15,.1-.1,.18-.24,.24-.42,.06-.18,.08-.41,.08-.67s-.03-.49-.08-.67c-.05-.19-.13-.33-.24-.43-.1-.1-.23-.15-.38-.15s-.28,.05-.38,.15c-.1,.1-.18,.24-.24,.43-.05,.19-.08,.41-.08,.67s.03,.49,.08,.67,.13,.33,.24,.42c.1,.1,.23,.15,.38,.15Zm0,.43c-.25,0-.47-.07-.64-.2-.18-.13-.31-.32-.41-.57s-.14-.55-.14-.9,.05-.65,.14-.9,.23-.44,.41-.57c.18-.13,.39-.2,.64-.2s.47,.07,.64,.2c.18,.13,.32,.32,.41,.57s.14,.55,.14,.9-.05,.65-.14,.9c-.09,.25-.23,.44-.41,.57-.18,.13-.39,.2-.65,.2Zm-4.37-.43c.15,0,.28-.05,.38-.15,.1-.1,.18-.24,.24-.42,.06-.18,.08-.41,.08-.67s-.03-.49-.08-.67c-.05-.19-.13-.33-.24-.43-.1-.1-.23-.15-.38-.15s-.28,.05-.38,.15c-.1,.1-.18,.24-.24,.43-.05,.19-.08,.41-.08,.67s.03,.49,.08,.67,.13,.33,.24,.42c.1,.1,.23,.15,.38,.15Zm0,.43c-.25,0-.47-.07-.64-.2-.18-.13-.31-.32-.41-.57s-.14-.55-.14-.9,.05-.65,.14-.9,.23-.44,.41-.57c.18-.13,.39-.2,.64-.2s.47,.07,.64,.2c.18,.13,.32,.32,.41,.57s.14,.55,.14,.9-.05,.65-.14,.9c-.09,.25-.23,.44-.41,.57-.18,.13-.39,.2-.65,.2Zm-6.28-2.2c-.09,0-.17-.03-.23-.09-.06-.06-.09-.14-.09-.23s.03-.16,.09-.23c.06-.06,.14-.09,.23-.09s.17,.03,.23,.09c.06,.06,.09,.14,.09,.23s-.03,.17-.09,.23c-.06,.06-.14,.09-.23,.09Zm0,1.72c-.09,0-.17-.03-.23-.09-.06-.06-.09-.14-.09-.23s.03-.16,.09-.23c.06-.06,.14-.09,.23-.09s.17,.03,.23,.09c.06,.06,.09,.14,.09,.23s-.03,.17-.09,.23c-.06,.06-.14,.09-.23,.09Zm-5.18,.44v-3.25h.57l1.22,1.93c.04,.06,.09,.14,.14,.23,.05,.09,.1,.19,.16,.3,.06,.11,.11,.23,.17,.36h-.06c-.01-.12-.02-.25-.03-.37,0-.12-.01-.23-.01-.34,0-.11,0-.2,0-.27v-1.85h.5v3.25h-.58l-1.1-1.73c-.06-.09-.12-.19-.17-.28-.06-.1-.12-.21-.18-.33-.07-.13-.15-.28-.25-.46h.08c0,.16,.02,.31,.02,.45,0,.14,.01,.26,.02,.37s0,.19,0,.26v1.73h-.5Zm-3.28,.05c-.24,0-.45-.04-.63-.12s-.32-.19-.42-.33c-.1-.14-.16-.31-.17-.51h.5c.01,.12,.05,.22,.12,.29,.07,.08,.15,.13,.26,.17,.11,.04,.22,.06,.35,.06,.14,0,.26-.02,.37-.07s.19-.1,.25-.18c.06-.08,.09-.17,.09-.27,0-.09-.03-.17-.08-.23s-.13-.11-.22-.15c-.09-.04-.2-.08-.31-.11l-.38-.1c-.27-.07-.47-.18-.62-.32-.15-.14-.22-.32-.22-.54,0-.19,.05-.35,.15-.49,.1-.14,.24-.25,.41-.33,.17-.08,.37-.12,.59-.12s.42,.04,.59,.12,.3,.18,.4,.32c.1,.14,.15,.29,.15,.46h-.49c-.02-.15-.09-.26-.21-.35-.12-.08-.27-.12-.46-.12-.13,0-.24,.02-.34,.06s-.17,.1-.22,.17c-.05,.07-.08,.15-.08,.25,0,.1,.03,.18,.09,.25,.06,.06,.14,.11,.23,.15,.09,.04,.18,.07,.26,.09l.31,.08c.1,.03,.21,.06,.32,.11,.11,.04,.21,.1,.3,.17,.09,.07,.17,.16,.23,.26,.06,.1,.09,.23,.09,.38,0,.18-.05,.35-.14,.49-.09,.14-.23,.26-.41,.34-.18,.08-.4,.12-.65,.12Z"/>
  <g>
    <path class="cls-3" d="M104.68,145.55c-.24,0-.45-.04-.63-.12-.18-.08-.32-.19-.42-.33-.1-.14-.16-.31-.17-.51h.5c.01,.12,.05,.22,.12,.29,.07,.08,.15,.13,.26,.17,.11,.04,.22,.06,.34,.06,.14,0,.26-.02,.37-.07,.11-.04,.19-.1,.25-.18,.06-.08,.09-.17,.09-.27,0-.09-.03-.17-.08-.23-.05-.06-.13-.11-.22-.15-.09-.04-.2-.08-.31-.11l-.38-.1c-.27-.07-.47-.18-.62-.32-.15-.14-.22-.32-.22-.54,0-.19,.05-.35,.15-.49,.1-.14,.24-.25,.41-.33,.17-.08,.37-.12,.59-.12s.42,.04,.59,.12c.17,.08,.3,.18,.4,.32,.1,.14,.15,.29,.15,.46h-.48c-.02-.15-.09-.26-.21-.35-.12-.08-.27-.12-.46-.12-.13,0-.24,.02-.34,.06-.1,.04-.17,.1-.22,.17-.05,.07-.08,.15-.08,.25,0,.1,.03,.18,.09,.25,.06,.06,.14,.11,.23,.15,.09,.04,.18,.07,.26,.09l.31,.08c.1,.03,.21,.06,.32,.11,.11,.04,.21,.1,.3,.17,.09,.07,.17,.16,.23,.26,.06,.1,.09,.23,.09,.38,0,.18-.05,.35-.14,.49-.09,.14-.23,.26-.41,.34-.18,.08-.4,.12-.65,.12Z"/>
    <path class="cls-3" d="M107.97,145.5v-3.25h.57l1.22,1.93c.04,.06,.09,.14,.14,.23,.05,.09,.1,.19,.16,.3,.06,.11,.11,.23,.17,.36h-.06c-.01-.12-.02-.25-.03-.37,0-.12-.01-.24-.01-.34,0-.11,0-.2,0-.27v-1.85h.5v3.25h-.58l-1.1-1.73c-.06-.09-.12-.19-.17-.29-.06-.1-.12-.21-.19-.33-.07-.13-.15-.28-.25-.46h.08c0,.16,.02,.31,.02,.45,0,.14,.01,.26,.02,.37,0,.11,0,.19,0,.26v1.73h-.5Z"/>
    <path class="cls-3" d="M113.15,143.34c-.09,0-.17-.03-.23-.09-.06-.06-.09-.14-.09-.23s.03-.17,.09-.23c.06-.06,.14-.09,.23-.09s.17,.03,.23,.09c.06,.06,.09,.14,.09,.23s-.03,.17-.09,.23c-.06,.06-.14,.09-.23,.09Zm0,1.72c-.09,0-.17-.03-.23-.09-.06-.06-.09-.14-.09-.23s.03-.17,.09-.23c.06-.06,.14-.09,.23-.09s.17,.03,.23,.09c.06,.06,.09,.14,.09,.23s-.03,.17-.09,.23c-.06,.06-.14,.09-.23,.09Z"/>
    <path class="cls-3" d="M119.43,145.12c.15,0,.28-.05,.38-.15,.1-.1,.18-.24,.24-.42,.05-.18,.08-.41,.08-.67s-.03-.49-.08-.67c-.05-.19-.13-.33-.24-.43-.1-.1-.23-.15-.38-.15s-.28,.05-.38,.15-.18,.24-.24,.43c-.05,.19-.08,.41-.08,.67s.03,.49,.08,.67c.05,.18,.13,.33,.24,.42,.1,.1,.23,.15,.38,.15Zm0,.43c-.25,0-.47-.07-.64-.2-.18-.13-.31-.32-.41-.57s-.14-.55-.14-.9,.05-.65,.14-.9,.23-.44,.41-.57c.18-.13,.39-.2,.64-.2s.47,.07,.64,.2c.18,.13,.32,.32,.41,.57,.09,.25,.14,.55,.14,.9s-.05,.65-.14,.9c-.09,.25-.23,.44-.41,.57-.18,.13-.39,.2-.65,.2Z"/>
    <path class="cls-3" d="M123.81,145.12c.15,0,.28-.05,.38-.15,.1-.1,.18-.24,.24-.42,.05-.18,.08-.41,.08-.67s-.03-.49-.08-.67c-.05-.19-.13-.33-.24-.43-.1-.1-.23-.15-.38-.15s-.28,.05-.38,.15-.18,.24-.24,.43c-.05,.19-.08,.41-.08,.67s.03,.49,.08,.67c.05,.18,.13,.33,.24,.42,.1,.1,.23,.15,.38,.15Zm0,.43c-.25,0-.47-.07-.64-.2-.18-.13-.31-.32-.41-.57s-.14-.55-.14-.9,.05-.65,.14-.9,.23-.44,.41-.57c.18-.13,.39-.2,.64-.2s.47,.07,.64,.2c.18,.13,.32,.32,.41,.57,.09,.25,.14,.55,.14,.9s-.05,.65-.14,.9c-.09,.25-.23,.44-.41,.57-.18,.13-.39,.2-.65,.2Z"/>
    <polygon class="cls-3" points="128.23 142.25 128.23 145.5 127.74 145.5 127.74 142.7 127.71 142.7 126.94 143.27 126.94 142.77 127.65 142.25 128.23 142.25"/>
    <path class="cls-3" d="M131.51,145.13c.12,0,.23-.03,.33-.09,.1-.06,.18-.14,.23-.25,.06-.1,.09-.22,.09-.34s-.03-.24-.08-.34c-.06-.1-.13-.18-.23-.24-.1-.06-.21-.09-.33-.09-.09,0-.18,.02-.26,.05-.08,.04-.15,.09-.21,.15-.06,.06-.11,.13-.14,.22-.03,.08-.05,.17-.05,.26,0,.12,.03,.23,.08,.34,.06,.1,.13,.19,.23,.25,.1,.06,.21,.09,.33,.09Zm0,.42c-.14,0-.29-.03-.43-.08-.14-.05-.27-.14-.38-.25-.11-.12-.21-.28-.27-.48-.07-.2-.1-.45-.1-.75,0-.28,.03-.53,.09-.75s.14-.41,.25-.56c.11-.15,.24-.27,.39-.35,.15-.08,.32-.12,.51-.12s.36,.04,.51,.11c.15,.08,.27,.18,.37,.31,.09,.13,.15,.29,.18,.46h-.49c-.03-.13-.1-.24-.19-.33-.1-.09-.22-.13-.38-.13s-.29,.05-.41,.14c-.11,.09-.2,.23-.26,.4-.06,.17-.09,.38-.09,.63h.02c.06-.09,.12-.17,.21-.24,.08-.07,.17-.12,.28-.15,.1-.03,.21-.05,.32-.05,.19,0,.36,.05,.51,.14,.15,.09,.27,.22,.37,.38,.09,.16,.14,.34,.14,.55s-.05,.39-.14,.56c-.09,.17-.23,.3-.4,.4s-.37,.15-.6,.15Z"/>
    <path class="cls-3" d="M140.41,144.28c-.09,0-.17-.03-.23-.09-.06-.06-.09-.14-.09-.23s.03-.17,.09-.23c.06-.06,.14-.09,.23-.09s.17,.03,.23,.09c.06,.06,.09,.14,.09,.23s-.03,.17-.09,.23c-.06,.06-.14,.09-.23,.09Z"/>
    <polygon class="cls-3" points="148.14 142.68 148.14 142.25 150.66 142.25 150.66 142.68 149.65 142.68 149.65 145.5 149.15 145.5 149.15 142.68 148.14 142.68"/>
    <path class="cls-3" d="M153.72,145.5v-1.29l-1.2-1.95h.58l.61,1.04c.07,.11,.13,.22,.18,.33,.05,.1,.11,.23,.16,.39h-.16c.05-.16,.11-.29,.16-.39,.05-.11,.11-.21,.17-.32l.6-1.04h.58l-1.19,1.95v1.29h-.5Z"/>
    <path class="cls-3" d="M157.37,145.5v-3.25h1.16c.25,0,.46,.05,.63,.14,.17,.09,.29,.22,.37,.38,.08,.16,.12,.34,.12,.54s-.04,.38-.13,.54-.21,.29-.38,.38c-.17,.09-.38,.14-.63,.14h-.8v-.42h.75c.16,0,.29-.03,.39-.08,.1-.05,.17-.13,.22-.23,.05-.1,.07-.2,.07-.33s-.02-.23-.07-.32c-.05-.09-.12-.17-.22-.22-.1-.05-.23-.08-.39-.08h-.61v2.82h-.5Z"/>
    <polygon class="cls-3" points="161.72 145.5 161.72 142.25 163.77 142.25 163.77 142.68 162.22 142.68 162.22 143.65 163.66 143.65 163.66 144.07 162.22 144.07 162.22 145.07 163.78 145.07 163.78 145.5 161.72 145.5"/>
    <path class="cls-3" d="M166.22,143.34c-.09,0-.17-.03-.23-.09-.06-.06-.09-.14-.09-.23s.03-.17,.09-.23c.06-.06,.14-.09,.23-.09s.17,.03,.23,.09c.06,.06,.09,.14,.09,.23s-.03,.17-.09,.23c-.06,.06-.14,.09-.23,.09Zm0,1.72c-.09,0-.17-.03-.23-.09-.06-.06-.09-.14-.09-.23s.03-.17,.09-.23c.06-.06,.14-.09,.23-.09s.17,.03,.23,.09c.06,.06,.09,.14,.09,.23s-.03,.17-.09,.23c-.06,.06-.14,.09-.23,.09Z"/>
    <path class="cls-3" d="M172.78,145.54c-.28,0-.53-.07-.75-.2-.22-.13-.39-.32-.52-.57-.13-.25-.19-.55-.19-.89s.06-.65,.19-.9c.13-.25,.3-.44,.52-.57,.22-.13,.47-.2,.75-.2,.17,0,.33,.02,.48,.07s.29,.12,.4,.22c.12,.09,.22,.21,.3,.34,.08,.14,.13,.29,.16,.46h-.5c-.02-.1-.06-.2-.11-.28-.05-.08-.11-.15-.19-.2-.07-.06-.16-.1-.25-.12-.09-.03-.19-.04-.29-.04-.19,0-.35,.05-.5,.14-.15,.09-.26,.23-.35,.41-.08,.18-.13,.4-.13,.66s.04,.48,.13,.66c.09,.18,.2,.32,.35,.41,.15,.09,.31,.14,.5,.14,.1,0,.2-.01,.29-.04s.17-.07,.25-.12c.07-.05,.14-.12,.19-.2,.05-.08,.09-.17,.11-.27h.5c-.02,.16-.07,.31-.15,.44s-.17,.25-.29,.35-.25,.17-.4,.23c-.15,.05-.32,.08-.5,.08Z"/>
    <polygon class="cls-3" points="176.03 142.68 176.03 142.25 178.55 142.25 178.55 142.68 177.54 142.68 177.54 145.5 177.04 145.5 177.04 142.68 176.03 142.68"/>
    <path class="cls-3" d="M182.44,145.5l-.79-1.47h.55l.8,1.47h-.57Zm-1.85,0v-3.25h1.16c.25,0,.46,.04,.63,.13,.17,.09,.29,.21,.37,.36,.08,.15,.12,.33,.12,.53s-.04,.38-.13,.53-.21,.27-.38,.35c-.17,.08-.38,.12-.63,.12h-.87v-.43h.83c.16,0,.29-.02,.39-.07,.1-.05,.17-.11,.22-.2s.07-.19,.07-.31-.02-.23-.07-.32c-.05-.09-.12-.16-.22-.21-.1-.05-.23-.07-.39-.07h-.61v2.82h-.5Z"/>
    <polygon class="cls-3" points="184.98 145.5 184.98 142.25 185.47 142.25 185.47 145.07 186.95 145.07 186.95 145.5 184.98 145.5"/>
    <path class="cls-3" d="M194.67,144.28c-.09,0-.17-.03-.23-.09-.06-.06-.09-.14-.09-.23s.03-.17,.09-.23c.06-.06,.14-.09,.23-.09s.17,.03,.23,.09c.06,.06,.09,.14,.09,.23s-.03,.17-.09,.23c-.06,.06-.14,.09-.23,.09Z"/>
    <path class="cls-3" d="M203.9,145.54c-.28,0-.53-.07-.75-.2-.22-.13-.39-.32-.52-.57-.13-.25-.19-.55-.19-.89s.06-.65,.19-.9c.13-.25,.3-.44,.52-.57,.22-.13,.47-.2,.75-.2,.17,0,.33,.02,.48,.07s.29,.12,.4,.22c.12,.09,.22,.21,.3,.34,.08,.14,.13,.29,.16,.46h-.5c-.02-.1-.06-.2-.11-.28-.05-.08-.11-.15-.19-.2-.07-.06-.16-.1-.25-.12-.09-.03-.19-.04-.29-.04-.19,0-.35,.05-.5,.14-.15,.09-.26,.23-.35,.41-.08,.18-.13,.4-.13,.66s.04,.48,.13,.66c.09,.18,.2,.32,.35,.41,.15,.09,.31,.14,.5,.14,.1,0,.2-.01,.29-.04s.17-.07,.25-.12c.07-.05,.14-.12,.19-.2,.05-.08,.09-.17,.11-.27h.5c-.02,.16-.07,.31-.15,.44s-.17,.25-.29,.35-.25,.17-.4,.23c-.15,.05-.32,.08-.5,.08Z"/>
    <polygon class="cls-3" points="207.31 145.5 207.31 142.25 207.81 142.25 207.81 145.07 209.28 145.07 209.28 145.5 207.31 145.5"/>
    <path class="cls-3" d="M211.7,144.64v-.42h1.69v.42h-1.69Zm-.63,.86l1.16-3.25h.61l1.18,3.25h-.54l-.63-1.81c-.05-.15-.1-.32-.16-.52-.06-.2-.13-.44-.2-.72h.1c-.08,.28-.14,.52-.2,.72-.06,.2-.11,.37-.16,.51l-.61,1.81h-.54Z"/>
    <path class="cls-3" d="M217.05,145.55c-.24,0-.45-.04-.63-.12-.18-.08-.32-.19-.42-.33s-.16-.31-.17-.51h.5c.01,.12,.05,.22,.12,.29s.15,.13,.26,.17c.11,.04,.22,.06,.34,.06,.14,0,.26-.02,.37-.07,.11-.04,.19-.1,.25-.18s.09-.17,.09-.27c0-.09-.03-.17-.08-.23-.05-.06-.13-.11-.22-.15-.09-.04-.2-.08-.31-.11l-.38-.1c-.27-.07-.47-.18-.62-.32-.15-.14-.22-.32-.22-.54,0-.19,.05-.35,.15-.49s.24-.25,.41-.33c.17-.08,.37-.12,.59-.12s.42,.04,.59,.12c.17,.08,.3,.18,.4,.32,.1,.14,.15,.29,.15,.46h-.48c-.02-.15-.09-.26-.21-.35-.12-.08-.27-.12-.46-.12-.13,0-.24,.02-.34,.06s-.17,.1-.22,.17c-.05,.07-.08,.15-.08,.25,0,.1,.03,.18,.09,.25,.06,.06,.14,.11,.23,.15,.09,.04,.18,.07,.26,.09l.31,.08c.1,.03,.21,.06,.32,.11,.11,.04,.21,.1,.3,.17,.09,.07,.17,.16,.23,.26,.06,.1,.09,.23,.09,.38,0,.18-.05,.35-.14,.49-.09,.14-.23,.26-.41,.34-.18,.08-.4,.12-.65,.12Z"/>
    <path class="cls-3" d="M221.42,145.55c-.24,0-.45-.04-.63-.12-.18-.08-.32-.19-.42-.33s-.16-.31-.17-.51h.5c.01,.12,.05,.22,.12,.29s.15,.13,.26,.17c.11,.04,.22,.06,.34,.06,.14,0,.26-.02,.37-.07,.11-.04,.19-.1,.25-.18s.09-.17,.09-.27c0-.09-.03-.17-.08-.23-.05-.06-.13-.11-.22-.15-.09-.04-.2-.08-.31-.11l-.38-.1c-.27-.07-.47-.18-.62-.32-.15-.14-.22-.32-.22-.54,0-.19,.05-.35,.15-.49s.24-.25,.41-.33c.17-.08,.37-.12,.59-.12s.42,.04,.59,.12c.17,.08,.3,.18,.4,.32,.1,.14,.15,.29,.15,.46h-.48c-.02-.15-.09-.26-.21-.35-.12-.08-.27-.12-.46-.12-.13,0-.24,.02-.34,.06s-.17,.1-.22,.17c-.05,.07-.08,.15-.08,.25,0,.1,.03,.18,.09,.25,.06,.06,.14,.11,.23,.15,.09,.04,.18,.07,.26,.09l.31,.08c.1,.03,.21,.06,.32,.11,.11,.04,.21,.1,.3,.17,.09,.07,.17,.16,.23,.26,.06,.1,.09,.23,.09,.38,0,.18-.05,.35-.14,.49-.09,.14-.23,.26-.41,.34-.18,.08-.4,.12-.65,.12Z"/>
    <path class="cls-3" d="M225.02,143.34c-.09,0-.17-.03-.23-.09-.06-.06-.09-.14-.09-.23s.03-.17,.09-.23c.06-.06,.14-.09,.23-.09s.17,.03,.23,.09c.06,.06,.09,.14,.09,.23s-.03,.17-.09,.23c-.06,.06-.14,.09-.23,.09Zm0,1.72c-.09,0-.17-.03-.23-.09-.06-.06-.09-.14-.09-.23s.03-.17,.09-.23c.06-.06,.14-.09,.23-.09s.17,.03,.23,.09c.06,.06,.09,.14,.09,.23s-.03,.17-.09,.23c-.06,.06-.14,.09-.23,.09Z"/>
    <path class="cls-3" d="M230.6,144.64v-.42h1.69v.42h-1.69Zm-.63,.86l1.16-3.25h.61l1.18,3.25h-.54l-.63-1.81c-.05-.15-.1-.32-.16-.52-.06-.2-.13-.44-.2-.72h.1c-.08,.28-.14,.52-.2,.72-.06,.2-.11,.37-.16,.51l-.61,1.81h-.54Z"/>
  </g>
  <rect class="cls-2" x="28.06" y="163.36" width="135.46" height=".99"/>
  <path class="cls-4" d="M170.46,163.86c0,.41-.15,.76-.44,1.05s-.64,.44-1.05,.44-.76-.15-1.05-.44-.44-.64-.44-1.05,.15-.76,.44-1.05,.64-.44,1.05-.44,.76,.15,1.05,.44,.44,.64,.44,1.05Z"/>
  <rect class="cls-2" x="174.43" y="163.36" width="135.46" height=".99"/>
  <path class="cls-4" d="M52.55,189.16l1.07-1.56v.33s-1.01-1.49-1.01-1.49h.51l.34,.53c.09,.14,.16,.26,.23,.38,.06,.12,.13,.23,.2,.34h-.23c.07-.11,.13-.22,.19-.34,.06-.12,.13-.24,.22-.38l.34-.53h.5l-1.02,1.5v-.32l1.06,1.53h-.51l-.4-.61c-.09-.13-.16-.26-.22-.37-.06-.11-.13-.22-.19-.33h.23c-.07,.1-.13,.21-.18,.33-.06,.11-.13,.24-.22,.37l-.4,.61h-.5Zm-1.51-.33c.17,0,.31-.05,.43-.14,.11-.09,.2-.21,.26-.37,.06-.15,.09-.33,.09-.51s-.03-.36-.08-.51c-.06-.15-.14-.27-.26-.36-.11-.09-.26-.13-.43-.13s-.31,.04-.42,.13c-.11,.08-.2,.2-.26,.35-.06,.15-.09,.32-.09,.52s.03,.38,.09,.53c.06,.15,.14,.27,.26,.36,.11,.09,.25,.13,.42,.13Zm-1.19,1.34v-3.72h.42v.43h.05s.07-.11,.13-.18c.05-.07,.13-.14,.24-.2,.1-.06,.24-.09,.42-.09,.23,0,.43,.06,.6,.17,.17,.11,.31,.27,.4,.48,.1,.21,.15,.46,.15,.74s-.05,.54-.15,.75c-.1,.21-.23,.37-.4,.49-.17,.11-.37,.17-.6,.17-.17,0-.31-.03-.41-.09-.1-.06-.19-.13-.24-.2-.06-.08-.1-.14-.13-.19h-.03v1.43h-.44Zm-3.04-1.01v-.33l1.2-1.3c.13-.15,.25-.27,.33-.38,.09-.11,.16-.21,.2-.31,.05-.1,.07-.2,.07-.32,0-.13-.03-.24-.09-.33-.06-.09-.14-.16-.24-.21-.1-.05-.22-.07-.35-.07-.14,0-.26,.03-.36,.08-.1,.06-.18,.13-.23,.24-.05,.1-.08,.22-.08,.35h-.44c0-.21,.05-.4,.15-.56,.1-.16,.23-.29,.4-.38s.36-.13,.58-.13,.4,.04,.57,.13c.17,.09,.3,.21,.39,.36,.09,.15,.14,.32,.14,.51,0,.13-.02,.26-.07,.38-.05,.12-.13,.26-.25,.42-.12,.16-.28,.35-.5,.57l-.79,.84v.03h1.66v.4h-2.3Zm-1.9,.05c-.24,0-.44-.04-.63-.12-.18-.08-.33-.19-.43-.34-.11-.14-.17-.31-.17-.5h.47c0,.11,.05,.21,.12,.3,.07,.08,.16,.15,.27,.19,.11,.04,.24,.07,.37,.07,.15,0,.29-.03,.4-.08,.12-.05,.21-.13,.28-.22,.07-.1,.1-.21,.1-.33,0-.13-.03-.25-.1-.35s-.16-.18-.28-.23c-.12-.06-.28-.08-.46-.08h-.29v-.4h.29c.14,0,.26-.03,.37-.08,.11-.05,.19-.12,.25-.21,.06-.09,.09-.2,.09-.32s-.03-.22-.08-.31c-.05-.09-.13-.16-.22-.21-.1-.05-.21-.07-.34-.07-.12,0-.24,.02-.35,.07-.11,.04-.2,.11-.26,.19-.07,.08-.11,.18-.11,.3h-.44c0-.19,.06-.36,.17-.5,.11-.14,.25-.26,.42-.34,.18-.08,.37-.12,.58-.12,.22,0,.42,.05,.58,.14,.16,.09,.29,.21,.37,.36,.09,.15,.13,.31,.13,.48,0,.2-.05,.38-.16,.52-.11,.14-.25,.24-.44,.3v.03c.15,.02,.28,.08,.39,.16,.11,.08,.19,.18,.25,.3,.06,.12,.09,.26,.09,.41,0,.2-.05,.37-.16,.53s-.25,.28-.44,.37c-.19,.09-.4,.13-.63,.13Zm-3.05-3.83l-1.16,4.32h-.4l1.16-4.32h.4Zm-5.62,3.78l1.07-1.56v.33s-1.01-1.49-1.01-1.49h.51l.34,.53c.09,.14,.16,.26,.23,.38,.06,.12,.13,.23,.2,.34h-.23c.07-.11,.13-.22,.19-.34,.06-.12,.13-.24,.22-.38l.34-.53h.5l-1.02,1.5v-.32l1.06,1.53h-.51l-.4-.61c-.09-.13-.16-.26-.22-.37-.06-.11-.13-.22-.19-.33h.23c-.07,.1-.13,.21-.18,.33-.06,.11-.13,.24-.22,.37l-.4,.61h-.5Zm-1.51-.33c.17,0,.31-.05,.43-.14,.11-.09,.2-.21,.26-.37,.06-.15,.09-.33,.09-.51s-.03-.36-.08-.51c-.06-.15-.14-.27-.26-.36-.11-.09-.26-.13-.43-.13s-.31,.04-.42,.13c-.11,.08-.2,.2-.26,.35-.06,.15-.09,.32-.09,.52s.03,.38,.09,.53c.06,.15,.14,.27,.26,.36,.11,.09,.25,.13,.42,.13Zm-1.19,1.34v-3.72h.42v.43h.05s.07-.11,.13-.18c.05-.07,.13-.14,.24-.2,.1-.06,.24-.09,.42-.09,.23,0,.43,.06,.6,.17,.17,.11,.31,.27,.4,.48,.1,.21,.15,.46,.15,.74s-.05,.54-.15,.75c-.1,.21-.23,.37-.4,.49-.17,.11-.37,.17-.6,.17-.17,0-.31-.03-.41-.09-.1-.06-.19-.13-.24-.2-.06-.08-.1-.14-.13-.19h-.03v1.43h-.44Zm-1.89-1.37c.15,0,.28-.04,.39-.11s.21-.17,.28-.29c.07-.12,.1-.26,.1-.41s-.03-.28-.1-.4c-.07-.12-.16-.22-.27-.29-.11-.07-.24-.11-.39-.11-.11,0-.21,.02-.31,.06-.09,.04-.18,.1-.25,.18-.07,.08-.13,.16-.17,.26-.04,.1-.06,.2-.06,.3,0,.14,.03,.27,.1,.4,.07,.12,.16,.22,.27,.3s.25,.11,.39,.11Zm0,.4c-.15,0-.3-.03-.45-.08-.15-.05-.29-.15-.41-.28-.12-.13-.22-.3-.3-.53-.07-.22-.11-.5-.11-.83s.03-.6,.09-.85c.06-.25,.15-.45,.26-.63,.12-.17,.25-.3,.42-.39,.16-.09,.35-.13,.55-.13s.38,.04,.54,.12c.16,.08,.29,.19,.39,.34,.1,.14,.17,.31,.2,.5h-.45c-.04-.16-.12-.29-.23-.39-.11-.1-.26-.16-.45-.16s-.34,.05-.48,.16c-.13,.11-.24,.26-.31,.47-.07,.2-.11,.45-.11,.74h.03c.06-.1,.14-.19,.23-.26,.09-.07,.19-.13,.3-.16,.11-.04,.23-.06,.35-.06,.21,0,.4,.05,.57,.15,.17,.1,.31,.24,.41,.42,.1,.18,.15,.39,.15,.62s-.05,.43-.15,.61c-.1,.18-.24,.33-.42,.44-.18,.11-.4,.16-.64,.16Zm-2-3.66v3.61h-.45v-3.18h-.02l-.87,.65v-.49l.78-.58h.56Z"/>
  <g>
    <polygon class="cls-3" points="29.64 185.55 29.64 189.16 29.19 189.16 29.19 185.98 29.17 185.98 28.29 186.63 28.29 186.13 29.08 185.55 29.64 185.55"/>
    <path class="cls-3" d="M31.64,188.81c.15,0,.28-.04,.39-.11s.21-.17,.28-.29,.1-.26,.1-.41-.03-.28-.1-.4-.16-.22-.27-.29-.24-.11-.39-.11c-.11,0-.21,.02-.31,.06s-.18,.1-.25,.18-.13,.16-.17,.26-.06,.2-.06,.3c0,.14,.03,.27,.1,.4s.16,.22,.27,.3,.25,.11,.39,.11Zm0,.4c-.15,0-.3-.03-.45-.08s-.29-.15-.41-.28-.22-.3-.3-.53-.11-.5-.11-.83,.03-.6,.09-.85,.15-.45,.26-.63,.25-.3,.42-.39,.35-.13,.55-.13,.38,.04,.54,.12,.29,.19,.39,.34,.17,.31,.2,.5h-.45c-.04-.16-.12-.29-.23-.39s-.26-.16-.45-.16-.34,.05-.48,.16-.24,.26-.31,.47-.11,.45-.11,.74h.03c.06-.1,.14-.19,.23-.26s.19-.13,.3-.16,.23-.06,.35-.06c.21,0,.4,.05,.57,.15s.31,.24,.41,.42,.15,.39,.15,.62-.05,.43-.15,.61-.24,.33-.42,.44-.4,.16-.64,.16Z"/>
    <path class="cls-3" d="M34.73,188.83c.17,0,.31-.05,.43-.14s.2-.21,.26-.37,.09-.33,.09-.51-.03-.36-.08-.51-.14-.27-.26-.36-.26-.13-.43-.13-.31,.04-.42,.13-.2,.2-.26,.35-.09,.32-.09,.52,.03,.38,.09,.53,.14,.27,.26,.36,.25,.13,.42,.13Zm-1.19,1.34v-3.72h.42v.43h.05s.07-.11,.13-.18,.13-.14,.24-.2,.24-.09,.42-.09c.23,0,.43,.06,.6,.17s.31,.27,.4,.48,.15,.46,.15,.74-.05,.54-.15,.75-.23,.37-.4,.49-.37,.17-.6,.17c-.17,0-.31-.03-.41-.09s-.19-.13-.24-.2-.1-.14-.13-.19h-.03v1.43h-.44Z"/>
    <path class="cls-3" d="M36.24,189.16l1.07-1.56v.33s-1.01-1.49-1.01-1.49h.51l.34,.53c.09,.14,.16,.26,.23,.38s.13,.23,.2,.34h-.23c.07-.11,.13-.22,.19-.34s.13-.24,.22-.38l.34-.53h.5l-1.02,1.5v-.32l1.06,1.53h-.51l-.4-.61c-.09-.13-.16-.26-.22-.37s-.13-.22-.19-.33h.23c-.07,.1-.13,.21-.18,.33s-.13,.24-.22,.37l-.4,.61h-.5Z"/>
    <polygon class="cls-3" points="41.86 185.38 40.7 189.71 40.3 189.71 41.46 185.38 41.86 185.38"/>
    <path class="cls-3" d="M44.91,189.21c-.24,0-.44-.04-.63-.12s-.33-.19-.43-.34-.17-.31-.17-.5h.47c0,.11,.05,.21,.12,.3s.16,.15,.27,.19,.24,.07,.37,.07c.15,0,.29-.03,.4-.08s.21-.13,.28-.22,.1-.21,.1-.33c0-.13-.03-.25-.1-.35s-.16-.18-.28-.23-.28-.08-.46-.08h-.29v-.4h.29c.14,0,.26-.03,.37-.08s.19-.12,.25-.21,.09-.2,.09-.32-.03-.22-.08-.31-.13-.16-.22-.21-.21-.07-.34-.07c-.12,0-.24,.02-.35,.07s-.2,.11-.26,.19-.11,.18-.11,.3h-.44c0-.19,.06-.36,.17-.5s.25-.26,.42-.34,.37-.12,.58-.12c.22,0,.42,.05,.58,.14s.29,.21,.37,.36,.13,.31,.13,.48c0,.2-.05,.38-.16,.52s-.25,.24-.44,.3v.03c.15,.02,.28,.08,.39,.16s.19,.18,.25,.3,.09,.26,.09,.41c0,.2-.05,.37-.16,.53s-.25,.28-.44,.37-.4,.13-.63,.13Z"/>
    <path class="cls-3" d="M46.81,189.16v-.33l1.2-1.3c.13-.15,.25-.27,.33-.38s.16-.21,.2-.31,.07-.2,.07-.32c0-.13-.03-.24-.09-.33s-.14-.16-.24-.21-.22-.07-.35-.07c-.14,0-.26,.03-.36,.08s-.18,.13-.23,.24-.08,.22-.08,.35h-.44c0-.21,.05-.4,.15-.56s.23-.29,.4-.38,.36-.13,.58-.13,.4,.04,.57,.13,.3,.21,.39,.36,.14,.32,.14,.51c0,.13-.02,.26-.07,.38s-.13,.26-.25,.42-.28,.35-.5,.57l-.79,.84v.03h1.66v.4h-2.3Z"/>
    <path class="cls-3" d="M51.04,188.83c.17,0,.31-.05,.43-.14s.2-.21,.26-.37,.09-.33,.09-.51-.03-.36-.08-.51-.14-.27-.26-.36-.26-.13-.43-.13-.31,.04-.42,.13-.2,.2-.26,.35-.09,.32-.09,.52,.03,.38,.09,.53,.14,.27,.26,.36,.25,.13,.42,.13Zm-1.19,1.34v-3.72h.42v.43h.05s.07-.11,.13-.18,.13-.14,.24-.2,.24-.09,.42-.09c.23,0,.43,.06,.6,.17s.31,.27,.4,.48,.15,.46,.15,.74-.05,.54-.15,.75-.23,.37-.4,.49-.37,.17-.6,.17c-.17,0-.31-.03-.41-.09s-.19-.13-.24-.2-.1-.14-.13-.19h-.03v1.43h-.44Z"/>
    <path class="cls-3" d="M52.55,189.16l1.07-1.56v.33s-1.01-1.49-1.01-1.49h.51l.34,.53c.09,.14,.16,.26,.23,.38s.13,.23,.2,.34h-.23c.07-.11,.13-.22,.19-.34s.13-.24,.22-.38l.34-.53h.5l-1.02,1.5v-.32l1.06,1.53h-.51l-.4-.61c-.09-.13-.16-.26-.22-.37s-.13-.22-.19-.33h.23c-.07,.1-.13,.21-.18,.33s-.13,.24-.22,.37l-.4,.61h-.5Z"/>
  </g>
  <g>
    <g>
      <path class="cls-6" d="M103.58,78.22h-11.6l-9.14,9.28c-1.63,1.66-3,3.13-4.12,4.39-.98,1.11-1.87,2.2-2.67,3.27l2.12-9.18,1.64-7.75h-9.79l-7.66,36.1h9.79l1.91-9.02,5.53-5.1,5.47,14.12h11.53l-8.94-20.56,15.92-15.54Z"/>
      <path class="cls-6" d="M123.42,91.45c-.24,1.15-.49,2.56-.75,4.23s-.51,3.37-.75,5.09c-.07,.51-.14,.99-.21,1.46-.11-.74-.23-1.45-.36-2.09-.29-1.48-.63-2.83-1.02-4.06-.39-1.23-.82-2.46-1.3-3.68l-5.59-14.17h-10.66l-7.66,36.1h10.08l2.8-13.18c.21-.99,.43-2.2,.66-3.63,.23-1.44,.47-3,.7-4.68,.1-.74,.21-1.49,.31-2.23,.18,.79,.34,1.52,.5,2.21,.33,1.45,.7,2.83,1.11,4.13,.41,1.3,.91,2.7,1.49,4.2l5.22,13.18h10.66l7.66-36.1h-10.08l-2.81,13.23Z"/>
      <path class="cls-6" d="M162.96,79.85c-2.35-1.41-5.16-2.12-8.44-2.12s-6.4,.71-9.35,2.12c-2.96,1.41-5.5,3.5-7.64,6.26s-3.63,6.15-4.48,10.18-.79,7.36,.18,10.11c.97,2.75,2.63,4.84,4.98,6.26,2.36,1.42,5.17,2.13,8.45,2.13s6.39-.71,9.34-2.12c2.95-1.41,5.49-3.5,7.64-6.25,2.14-2.75,3.64-6.13,4.49-10.14s.79-7.41-.18-10.18c-.97-2.76-2.63-4.85-4.98-6.26Zm-6.92,21.89c-.88,1.49-1.96,2.61-3.22,3.38-1.27,.77-2.72,1.15-4.35,1.15s-2.89-.38-3.84-1.15c-.94-.77-1.54-1.89-1.8-3.38-.26-1.49-.16-3.3,.3-5.45s1.13-3.99,2.02-5.49c.89-1.49,1.97-2.62,3.24-3.39,1.27-.77,2.71-1.15,4.33-1.15s2.92,.38,3.86,1.15c.94,.77,1.54,1.9,1.79,3.39,.25,1.49,.14,3.32-.32,5.49s-1.12,3.97-2,5.45Z"/>
      <path class="cls-6" d="M196.72,99.65c-.48-1.27-1.28-2.26-2.4-2.98-1.12-.72-2.44-1.1-3.98-1.15l.08-.39c1.46-.27,2.79-.78,3.99-1.51,1.2-.73,2.2-1.65,3.02-2.75,.81-1.1,1.36-2.31,1.64-3.63,.39-1.83,.25-3.41-.42-4.76-.67-1.35-1.86-2.39-3.57-3.14-1.72-.74-3.95-1.11-6.69-1.11h-15.65l-7.66,36.1h17.01c2.62,0,4.96-.44,7.04-1.32,2.08-.88,3.79-2.09,5.13-3.63,1.34-1.54,2.23-3.3,2.64-5.27,.36-1.7,.3-3.18-.18-4.45Zm-15.83-13.72h4.17c1.21,0,2.15,.3,2.83,.9,.67,.6,.89,1.45,.66,2.54-.16,.74-.48,1.37-.96,1.88s-1.07,.9-1.79,1.16-1.49,.4-2.35,.4h-4.02l1.46-6.88Zm4.13,19.65c-.97,.63-2.26,.94-3.9,.94h-4.6l1.62-7.66h4.75c.99,0,1.8,.15,2.46,.46,.65,.31,1.11,.76,1.37,1.34,.26,.59,.3,1.31,.12,2.17-.25,1.2-.86,2.11-1.83,2.74Z"/>
    </g>
    <g>
      <path class="cls-9" d="M223.69,72.81h-.16l-7.31,2.9,1.38-9.33,9.76-4.35h9.42l-9.82,51.89h-11.02l7.74-41.12Z"/>
      <path class="cls-9" d="M274.23,70.65c-1.28-.08-2.55,0-4.31,.16-9.5,.88-15.73,6.07-18.36,12.21l.16,.08c2.87-2.55,6.55-3.99,10.7-3.99,7.66,0,13.25,5.91,13.25,14.53,0,11.1-8.54,21.16-20.76,21.16s-17.32-7.98-17.32-18.2c0-11.82,5.67-22.03,12.85-27.7,5.83-4.63,13.49-7.19,21.24-7.58,2-.16,3.19-.08,4.31,0l-1.76,9.34Zm-10.46,24.19c0-4.55-2.55-7.19-6.39-7.19-3.19,0-5.91,2-7.5,4.79-.48,.8-.8,1.84-.88,2.63-.16,1.04-.16,1.92-.16,2.79,0,4.47,2.32,8.06,6.47,8.06,5.51,0,8.46-6.23,8.46-11.1Z"/>
    </g>
    <path class="cls-1" d="M211.94,82.81c0,.54-.1,1.06-.31,1.56-.21,.5-.5,.94-.88,1.32-.38,.38-.82,.67-1.32,.88-.5,.21-1.02,.31-1.56,.31s-1.06-.1-1.56-.31c-.5-.21-.94-.5-1.32-.88-.38-.38-.67-.82-.88-1.32-.21-.5-.31-1.02-.31-1.56s.1-1.06,.31-1.56c.21-.5,.5-.94,.88-1.32,.38-.38,.82-.67,1.32-.88s1.02-.31,1.56-.31,1.06,.1,1.56,.31,.94,.5,1.32,.88c.38,.38,.67,.82,.88,1.32,.21,.5,.31,1.02,.31,1.56Z"/>
  </g>
  <g>
    <g>
      <path class="cls-6" d="M276.05,183.52h-2.28l-1.79,1.82c-.32,.33-.59,.61-.81,.86-.19,.22-.37,.43-.52,.64l.42-1.8,.32-1.52h-1.92l-1.5,7.09h1.92l.38-1.77,1.09-1,1.07,2.77h2.26l-1.75-4.04,3.12-3.05Z"/>
      <path class="cls-6" d="M279.95,186.11c-.05,.23-.1,.5-.15,.83s-.1,.66-.15,1c-.01,.1-.03,.19-.04,.29-.02-.15-.05-.28-.07-.41-.06-.29-.12-.56-.2-.8-.08-.24-.16-.48-.26-.72l-1.1-2.78h-2.09l-1.5,7.09h1.98l.55-2.59c.04-.19,.08-.43,.13-.71,.05-.28,.09-.59,.14-.92,.02-.15,.04-.29,.06-.44,.03,.15,.07,.3,.1,.43,.06,.29,.14,.56,.22,.81,.08,.26,.18,.53,.29,.82l1.03,2.59h2.09l1.5-7.09h-1.98l-.55,2.6Z"/>
      <path class="cls-6" d="M287.71,183.84c-.46-.28-1.01-.42-1.66-.42s-1.26,.14-1.84,.42c-.58,.28-1.08,.69-1.5,1.23s-.71,1.21-.88,2c-.17,.78-.15,1.44,.04,1.99,.19,.54,.52,.95,.98,1.23,.46,.28,1.02,.42,1.66,.42s1.25-.14,1.83-.42c.58-.28,1.08-.69,1.5-1.23,.42-.54,.71-1.2,.88-1.99s.16-1.46-.04-2-.52-.95-.98-1.23Zm-1.36,4.3c-.17,.29-.38,.51-.63,.66-.25,.15-.53,.23-.85,.23s-.57-.08-.75-.23c-.19-.15-.3-.37-.35-.66-.05-.29-.03-.65,.06-1.07s.22-.78,.4-1.08c.17-.29,.39-.52,.64-.67,.25-.15,.53-.23,.85-.23s.57,.08,.76,.23c.19,.15,.3,.37,.35,.67,.05,.29,.03,.65-.06,1.08s-.22,.78-.39,1.07Z"/>
      <path class="cls-6" d="M294.33,187.72c-.09-.25-.25-.44-.47-.58-.22-.14-.48-.22-.78-.23l.02-.08c.29-.05,.55-.15,.78-.3,.24-.14,.43-.32,.59-.54,.16-.22,.27-.45,.32-.71,.08-.36,.05-.67-.08-.93-.13-.26-.36-.47-.7-.62-.34-.15-.77-.22-1.31-.22h-3.07l-1.5,7.09h3.34c.51,0,.97-.09,1.38-.26,.41-.17,.74-.41,1.01-.71,.26-.3,.44-.65,.52-1.03,.07-.33,.06-.62-.04-.87Zm-3.11-2.69h.82c.24,0,.42,.06,.55,.18,.13,.12,.18,.28,.13,.5-.03,.15-.09,.27-.19,.37s-.21,.18-.35,.23-.29,.08-.46,.08h-.79l.29-1.35Zm.81,3.86c-.19,.12-.44,.19-.76,.19h-.9l.32-1.5h.93c.19,0,.35,.03,.48,.09,.13,.06,.22,.15,.27,.26,.05,.12,.06,.26,.02,.43-.05,.23-.17,.41-.36,.54Z"/>
    </g>
    <g>
      <path class="cls-6" d="M299.62,182.45h-.03l-1.43,.57,.27-1.83,1.92-.85h1.85l-1.93,10.18h-2.16l1.52-8.07Z"/>
      <path class="cls-6" d="M309.55,182.03c-.25-.02-.5,0-.85,.03-1.86,.17-3.09,1.19-3.6,2.4l.03,.02c.56-.5,1.28-.78,2.1-.78,1.5,0,2.6,1.16,2.6,2.85,0,2.18-1.68,4.15-4.07,4.15s-3.4-1.57-3.4-3.57c0-2.32,1.11-4.32,2.52-5.44,1.14-.91,2.65-1.41,4.17-1.49,.39-.03,.63-.02,.85,0l-.34,1.83Zm-2.05,4.75c0-.89-.5-1.41-1.25-1.41-.63,0-1.16,.39-1.47,.94-.09,.16-.16,.36-.17,.52-.03,.2-.03,.38-.03,.55,0,.88,.45,1.58,1.27,1.58,1.08,0,1.66-1.22,1.66-2.18Z"/>
    </g>
    <path class="cls-6" d="M297.32,184.42c0,.11-.02,.21-.06,.31-.04,.1-.1,.18-.17,.26-.07,.07-.16,.13-.26,.17-.1,.04-.2,.06-.31,.06s-.21-.02-.31-.06c-.1-.04-.18-.1-.26-.17-.07-.07-.13-.16-.17-.26-.04-.1-.06-.2-.06-.31s.02-.21,.06-.31c.04-.1,.1-.18,.17-.26,.07-.07,.16-.13,.26-.17s.2-.06,.31-.06,.21,.02,.31,.06,.18,.1,.26,.17c.07,.07,.13,.16,.17,.26,.04,.1,.06,.2,.06,.31Z"/>
  </g>
  <g>
    <path class="cls-7" d="M140.13,27.95c.09,.4,.38,.59,.85,.59s.69-.21,.69-.51c0-.33-.18-.49-.86-.65-.97-.23-1.25-.58-1.25-1.09,0-.62,.46-1.07,1.33-1.07,.96,0,1.35,.53,1.4,1.06h-.71c-.05-.27-.21-.53-.71-.53-.37,0-.59,.16-.59,.46s.18,.41,.8,.56c1.08,.26,1.31,.67,1.31,1.18,0,.66-.5,1.13-1.46,1.13s-1.42-.49-1.51-1.13h.71Z"/>
    <path class="cls-7" d="M145.99,25.86h-1.17v-.58h3.04v.58h-1.16v3.17h-.71v-3.17Z"/>
    <path class="cls-7" d="M150.78,28.07l-.33,.96h-.7l1.3-3.76h.88l1.35,3.76h-.74l-.35-.96h-1.42Zm1.26-.58c-.3-.86-.48-1.37-.56-1.69h0c-.09,.35-.29,.96-.53,1.69h1.1Z"/>
    <path class="cls-7" d="M156.68,25.27v3.76h-.7v-3.76h.7Z"/>
    <path class="cls-7" d="M159.8,29.03v-3.76h.89c.49,.86,1.46,2.5,1.65,2.9h0c-.04-.42-.04-1.05-.04-1.67v-1.23h.65v3.76h-.84c-.44-.76-1.49-2.6-1.69-3.03h0c.03,.36,.03,1.09,.03,1.76v1.27h-.65Z"/>
    <path class="cls-7" d="M175.74,27.56c0-.66,0-1.38,.03-1.79h-.02c-.17,.71-.63,2.09-1.01,3.27h-.61c-.29-1-.76-2.56-.93-3.27h-.02c.03,.44,.05,1.23,.05,1.88v1.4h-.65v-3.76h1.05c.34,1.04,.73,2.37,.85,2.9h0c.09-.45,.57-1.88,.93-2.9h1.01v3.76h-.68v-1.48Z"/>
    <path class="cls-7" d="M182.05,27.36h-1.82v1.08h2.01l-.08,.58h-2.61v-3.76h2.59v.58h-1.9v.92h1.82v.58Z"/>
    <path class="cls-7" d="M185.94,25.86h-1.17v-.58h3.04v.58h-1.16v3.17h-.71v-3.17Z"/>
    <path class="cls-7" d="M190.73,28.07l-.33,.96h-.7l1.3-3.76h.88l1.35,3.76h-.74l-.35-.96h-1.42Zm1.26-.58c-.3-.86-.48-1.37-.56-1.69h0c-.09,.35-.29,.96-.53,1.69h1.1Z"/>
    <path class="cls-7" d="M195.93,25.27h.7v3.17h1.9l-.08,.58h-2.52v-3.76Z"/>
  </g>
</svg>